<svg t="1615263520537" class="icon" viewBox="0 -57 1081 1024" version="1.1" xmlns="http://www.w3.org/2000/svg" p-id="4250" width="200" height="200"><path d="M989.316566 152.342676h-60.373265v-60.373264A92.169851 92.169851 0 0 0 836.974694 0.000805h-744.603599A91.968607 91.968607 0 0 0 0 91.768167v440.121101a94.584781 94.584781 0 0 0 94.584781 94.383537H100.622108v-40.248843h-6.037327A54.335938 54.335938 0 0 1 40.248843 531.889268V91.768167A51.518519 51.518519 0 0 1 91.767362 40.249648h744.603599a51.719763 51.719763 0 0 1 51.719764 51.719764v60.373264h-643.981491a91.968607 91.968607 0 0 0-91.767363 91.767363v457.025614a77.479023 77.479023 0 0 0 77.479024 77.479023h37.431424v238.474396a6.842303 6.842303 0 0 0 12.275897 4.226129l179.912329-228.412185a37.431424 37.431424 0 0 1 29.381656-14.28834h514.983948a77.680267 77.680267 0 0 0 77.680268-77.680267V244.512527a92.169851 92.169851 0 0 0-92.169851-92.169851z m51.921007 548.792977a37.23018 37.23018 0 0 1-37.23018 37.23018h-515.185192a77.479023 77.479023 0 0 0-60.373265 29.5829L319.777059 905.599777a6.842303 6.842303 0 0 1-12.275897-4.226129v-163.007815h-77.680267a37.23018 37.23018 0 0 1-37.23018-37.23018V244.110039a51.518519 51.518519 0 0 1 51.518519-51.518519h744.603599a51.921008 51.921008 0 0 1 51.921008 51.719763z" p-id="4251"></path><path d="M349.561203 323.199016h252.96398v40.248843H349.561203zM349.561203 453.404024h523.234962v40.248843h-523.234962zM349.561203 573.54682h296.633974v40.248844H349.561203z" p-id="4252"></path></svg>