<svg t="1615262488804" class="icon" viewBox="0 0 1024 1024" version="1.1" xmlns="http://www.w3.org/2000/svg" p-id="3340" width="200" height="200"><path d="M419.8 379.42l-1.15 1.98c1.49-0.52 2.94-1.18 4.36-1.98h-3.21zM484 450.51h14.75l-18.03-31.23-11.34 19.64A21.43 21.43 0 0 1 484 450.51zM467.09 442.9l-4.39 7.61h16.34c-2.64-4.05-6.95-6.92-11.95-7.61z" fill="#FFFFFF" p-id="3341"></path><path d="M890.23 452.16L737.56 564.18 334.92 452.16V343.57h555.31z" fill="#E7F3FF" p-id="3342"></path><path d="M950.4 348.84c-20.22-20.78-40.56-41.62-60.84-62.41-40-40.89-79.72-81.84-119.67-122.75-27.9-28.68-55.8-57.25-83.59-85.83-1.35-1.39-2.86-2.85-4.2-4.25-8.24-8.51-21.01-11.83-32.5-8.63-14.34 3.92-24.54 17.37-24.54 32.22v88.35H305.62c-18.26 0-33.39 15.18-33.39 33.5 0 18.1 15.13 33.28 33.39 33.28h353.01c18.1 0 33.39-15.18 33.39-33.34v-39.83c1.29 1.35 2.63 2.69 3.92 4.03 39.79 40.96 79.62 81.88 119.5 122.75 21.29 21.8 42.47 43.58 63.7 65.38L834.43 413c-41.8 38.71-83.37 77.65-125.16 116.36-1.03 0.99-2.08 1.96-3.14 2.91v-46.78c0-18.21-15.18-33.44-33.39-33.44H391.95v-84.83c0-11.82-6.33-22.86-16.58-28.85-12.89-7.68-29.7-5.33-40.45 5.2-21.34 21.18-42.8 42.25-64.09 63.31L148.64 527.34c-24.71 24.37-49.53 48.8-74.29 73.28-0.23 0.23-0.45 0.44-0.61 0.83-6.33 5.94-9.81 14.8-9.81 23.53 0 9.52 3.81 16.64 9.81 23.64 18.32 22.02 36.64 43.87 54.96 65.89l109.75 131.21c27.05 32.27 54.17 64.65 81.17 97.03 2.19 2.63 4.31 5.16 6.45 7.68 7.45 8.96 21.79 11.6 32.43 8.63 14.34-3.92 24.54-17.37 24.54-32.15V826.12H636c18.27 0 33.39-15.18 33.39-33.45s-15.13-33.39-33.39-33.39H349.77c-18.26 0-33.5 15.19-33.5 33.39v42.3L208.53 706.11c-21.96-26.16-43.92-52.55-65.94-78.88 14.18-14.01 28.35-27.96 42.52-41.96 40.73-40.17 81.35-80.29 122.14-120.45 5.94-5.89 11.93-11.83 17.93-17.71v38.43c0 18.15 15.18 33.39 33.45 33.39H639.2v90.25c0 11.71 6.34 22.86 16.64 28.8 13.22 7.79 29.41 5.04 40.45-5.26l68.86-63.93c41.79-38.94 83.42-77.76 125.1-116.64l60.17-56.04c13.37-12.53 12.37-34.49-0.02-47.27z m0 0" fill="#000000" p-id="3343"></path></svg>