<svg t="1615108816003" class="icon" viewBox="0 64 1365 512" version="1.1" xmlns="http://www.w3.org/2000/svg" p-id="2335" width="200" height="200"><path d="M118.613333 833.877333V177.408l528.725334 392.448a59.221333 59.221333 0 0 0 70.826666 0l528.554667-392.533333v656.554666H118.613333zM1126.656 118.613333L682.666667 448.170667 238.933333 118.784H1126.4l0.170667-0.085333z m238.08-67.328c-0.256-1.706667-0.426667-3.413333-0.853333-5.12a36.778667 36.778667 0 0 0-1.706667-5.546666c-0.597333-1.877333-1.109333-3.754667-1.877333-5.461334L1357.824 30.72c-1.109333-1.962667-2.218667-3.925333-3.413333-5.717333L1353.642667 23.893333c-0.853333-1.109333-1.792-1.877333-2.730667-2.986666a81.664 81.664 0 0 0-4.266667-4.693334c-1.450667-1.365333-2.986667-2.474667-4.522666-3.669333-1.450667-1.109333-2.901333-2.304-4.522667-3.328l-5.12-2.816c-1.706667-0.853333-3.413333-1.706667-5.12-2.304-1.877333-0.768-3.754667-1.28-5.717333-1.792a57.344 57.344 0 0 0-11.946667-1.962667c-1.28 0-2.56-0.341333-3.84-0.341333H59.306667C58.026667 0 56.832 0.341333 55.552 0.341333a57.429333 57.429333 0 0 0-11.946667 1.877334C41.728 2.986667 39.850667 3.413333 37.973333 4.266667a53.162667 53.162667 0 0 0-5.12 2.304c-1.706667 0.853333-3.413333 1.706667-5.12 2.816C26.026667 10.24 24.661333 11.52 23.125333 12.629333 21.589333 13.824 20.138667 14.933333 18.602667 16.384 17.066667 17.749333 15.872 19.370667 14.336 20.906667 13.653333 22.186667 12.544 22.869333 11.776 24.064 11.264 24.234667 11.178667 24.746667 10.922667 25.002667L7.68 30.72C6.826667 32.256 5.973333 33.792 5.205333 35.328a47.872 47.872 0 0 0-1.962666 5.461333C2.645333 42.666667 1.962667 44.544 1.536 46.421333c-0.426667 1.706667-0.512 3.413333-0.853333 4.949334C0.597333 53.76 0.256 55.893333 0.256 58.197333L0 59.306667v833.877333c0 32.768 26.624 59.392 59.306667 59.392h1246.72a59.306667 59.306667 0 0 0 59.306666-59.392V59.306667l-0.085333-1.109334c0-2.304-0.426667-4.437333-0.682667-6.656V51.370667z" p-id="2336"></path></svg>