<?xml version="1.0" encoding="utf-8"?>
<!-- Generator: Adobe Illustrator 23.0.3, SVG Export Plug-In . SVG Version: 6.00 Build 0)  -->
<svg version="1.1" xmlns="http://www.w3.org/2000/svg" xmlns:xlink="http://www.w3.org/1999/xlink" x="0px" y="0px"
	 viewBox="30 0 230 125" style="enable-background:new 0 0 294 125;" xml:space="preserve">
<style type="text/css">
	.st0{display:none;}
	.st1{display:inline;stroke:#000000;stroke-miterlimit:10;}
	.st2{filter:url(#Adobe_OpacityMaskFilter);}
	.st3{fill-rule:evenodd;clip-rule:evenodd;fill:#FFFFFF;}
	.st4{mask:url(#mask-14_1_);fill:#E3E4E5;}
	.st5{filter:url(#Adobe_OpacityMaskFilter_1_);}
	.st6{mask:url(#mask-16_1_);fill:#E3E4E5;}
	.st7{filter:url(#Adobe_OpacityMaskFilter_2_);}
	.st8{mask:url(#mask-18_1_);fill:#85CDDD;}
	.st9{filter:url(#Adobe_OpacityMaskFilter_3_);}
	.st10{mask:url(#mask-20_1_);fill:#8BDDE8;}
	.st11{filter:url(#Adobe_OpacityMaskFilter_4_);}
	.st12{mask:url(#mask-22_1_);fill:#299B9B;}
	.st13{fill:#00AFFC;}
	.st14{fill:#50C7D3;}
	.st15{fill:#39BCC9;}
	.st16{fill:#32B9D8;}
	.st17{fill:#38BBF4;}
	.st18{fill:#3399CC;}
</style>
<g id="Layer_2" class="st0">
	<polyline class="st1" points="-64,190 -64,-18.4 353.7,-18.4 353.7,190 	"/>
</g>
<g id="Layer_1">
	<title>画板</title>
	<desc>Created with Sketch.</desc>
	<g id="画板_2_">
		<g id="techo-title_2_" transform="translate(-48.000000, -6.000000)">
			<g>
				<g>
					<g id="Fill-34-Clipped_2_">
						<defs>
							<filter id="Adobe_OpacityMaskFilter" filterUnits="userSpaceOnUse" x="48.2" y="39.5" width="22.9" height="60.6">
								<feColorMatrix  type="matrix" values="1 0 0 0 0  0 1 0 0 0  0 0 1 0 0  0 0 0 1 0"/>
							</filter>
						</defs>
						<mask maskUnits="userSpaceOnUse" x="48.2" y="39.5" width="22.9" height="60.6" id="mask-14_1_">
							<g class="st2">
								<polygon id="path-13_1_" class="st3" points="0.9,33.8 346.4,33.8 346.4,180.1 0.9,180.1 								"/>
							</g>
						</mask>
						<path id="Fill-34_2_" class="st4" d="M49,99.3h21.3v-6H56.4V46.4h13.8v-6H49V99.3z M71,100.1H48.2V39.5H71v7.6H57.2v45.3H71
							V100.1z"/>
					</g>
					<g id="Fill-35-Clipped_2_">
						<defs>
							<filter id="Adobe_OpacityMaskFilter_1_" filterUnits="userSpaceOnUse" x="318.8" y="39.5" width="22.9" height="60.6">
								<feColorMatrix  type="matrix" values="1 0 0 0 0  0 1 0 0 0  0 0 1 0 0  0 0 0 1 0"/>
							</filter>
						</defs>
						<mask maskUnits="userSpaceOnUse" x="318.8" y="39.5" width="22.9" height="60.6" id="mask-16_1_">
							<g class="st5">
								<polygon id="path-15_1_" class="st3" points="0.9,33.8 346.4,33.8 346.4,180.1 0.9,180.1 								"/>
							</g>
						</mask>
						<path id="Fill-35_2_" class="st6" d="M319.6,99.3H341v-59h-21.3v6h13.8v46.9h-13.8V99.3z M341.8,100.1h-22.9v-7.6h13.8V47.2
							h-13.8v-7.6h22.9V100.1z"/>
					</g>
					<g id="Fill-36-Clipped_2_">
						<defs>
							<filter id="Adobe_OpacityMaskFilter_2_" filterUnits="userSpaceOnUse" x="265.3" y="57.4" width="30.5" height="34">
								<feColorMatrix  type="matrix" values="1 0 0 0 0  0 1 0 0 0  0 0 1 0 0  0 0 0 1 0"/>
							</filter>
						</defs>
						<mask maskUnits="userSpaceOnUse" x="265.3" y="57.4" width="30.5" height="34" id="mask-18_1_">
							<g class="st7">
								<polygon id="path-17_1_" class="st3" points="0.9,33.8 346.4,33.8 346.4,180.1 0.9,180.1 								"/>
							</g>
						</mask>
						<path id="Fill-36_2_" class="st8" d="M295.8,59l0,0.1c-0.3,0.5-2.1,2.7-5.4,6.7c-1.8-0.3-3.5-0.3-5.1,0.1l-1.4,0.3
							c-5.3,1-8.6,4.2-10,9.6c-0.3,1.7-0.3,3.5,0.1,5.5l0,0.1c0.3,1.6,0.6,2.6,0.9,3.1c-0.2,0.6-2.1,2.9-5.5,6.9
							c-1.7-2.4-2.9-5.3-3.5-8.5c-1.7-8.7,1.2-15.9,8.7-21.6c2.6-1.7,5.5-2.8,8.6-3.4C287.5,57,291.7,57.4,295.8,59"/>
					</g>
					<g id="Fill-37-Clipped_2_">
						<defs>
							<filter id="Adobe_OpacityMaskFilter_3_" filterUnits="userSpaceOnUse" x="269" y="58.2" width="35.5" height="41.9">
								<feColorMatrix  type="matrix" values="1 0 0 0 0  0 1 0 0 0  0 0 1 0 0  0 0 0 1 0"/>
							</filter>
						</defs>
						<mask maskUnits="userSpaceOnUse" x="269" y="58.2" width="35.5" height="41.9" id="mask-20_1_">
							<g class="st9">
								<polygon id="path-19_1_" class="st3" points="0.9,33.8 346.4,33.8 346.4,180.1 0.9,180.1 								"/>
							</g>
						</mask>
						<path id="Fill-37_2_" class="st10" d="M304.5,60.4l-32.8,39.7c-0.7-0.4-1.5-1.2-2.6-2.2l32.8-39.7
							C302.5,58.6,303.3,59.4,304.5,60.4"/>
					</g>
				</g>
				<g id="Fill-38-Clipped_2_" transform="translate(278.000000, 33.000000)">
					<g>
						<defs>
							<filter id="Adobe_OpacityMaskFilter_4_" filterUnits="userSpaceOnUse" x="0.1" y="33.1" width="30.1" height="33.8">
								<feColorMatrix  type="matrix" values="1 0 0 0 0  0 1 0 0 0  0 0 1 0 0  0 0 0 1 0"/>
							</filter>
						</defs>
						<mask maskUnits="userSpaceOnUse" x="0.1" y="33.1" width="30.1" height="33.8" id="mask-22_1_">
							<g class="st11">
								<path id="path-21_1_" class="st3" d="M20.8,39.6c0.5,1.7,0.8,2.8,0.9,3.3l0,0c0.3,1.5,0.4,3.1,0.3,4.6l0,0
									c-1.2,6-4.5,9.5-10.1,10.5l0,0l-1.4,0.3c-1.4,0.3-3,0.3-4.9,0.1l0,0l-0.1,0c-3.3,4-5.1,6.1-5.3,6.4l0,0l0,0.2
									c3.8,1.8,8,2.3,12.7,1.4l0,0c3.6-0.7,6.9-2.3,9.9-4.7l0,0c6.1-5.6,8.5-12.3,7-20.1l0,0c-0.6-3.3-1.7-6.1-3.3-8.4l0,0l0-0.1
									C26.2,33.1,24.4,35.3,20.8,39.6"/>
							</g>
						</mask>
						<path id="Fill-38_2_" class="st12" d="M20.8,39.6c0.5,1.7,0.8,2.8,0.9,3.3l0,0c0.3,1.5,0.4,3.1,0.3,4.6l0,0
							c-1.2,6-4.5,9.5-10.1,10.5l0,0l-1.4,0.3c-1.4,0.3-3,0.3-4.9,0.1l0,0l-0.1,0c-3.3,4-5.1,6.1-5.3,6.4l0,0l0,0.2
							c3.8,1.8,8,2.3,12.7,1.4l0,0c3.6-0.7,6.9-2.3,9.9-4.7l0,0c6.1-5.6,8.5-12.3,7-20.1l0,0c-0.6-3.3-1.7-6.1-3.3-8.4l0,0l0-0.1
							C26.2,33.1,24.4,35.3,20.8,39.6"/>
					</g>
				</g>
				<polygon id="Fill-40_2_" class="st13" points="130,40 110.2,40 100.8,40 81,40 81,49.5 100.8,49.5 100.8,100 110.2,100 
					110.2,49.5 130,49.5 				"/>
				<polygon id="Fill-42_2_" class="st14" points="219.6,100.1 228.6,100.1 228.6,40.1 219.6,40.1 				"/>
				<g transform="translate(126.000000, 24.000000)">
					<path id="Fill-44_2_" class="st15" d="M132.1,76.4h-9V52.7c0-5.7-4.6-10.4-10.2-10.4c-5.6,0-10.2,4.7-10.2,10.4v23.7h-9V52.7
						c0-10.8,8.6-19.6,19.2-19.6c10.6,0,19.2,8.8,19.2,19.6V76.4z"/>
					<path id="Fill-46_2_" class="st16" d="M79.1,63c-2.3,2.7-5.7,4.4-9.5,4.4c-6.9,0-12.5-5.7-12.5-12.7S62.7,42,69.6,42
						c3.8,0,7.2,1.7,9.5,4.4l6.2-6.3c-3.9-4.3-9.5-7.1-15.7-7.1c-11.7,0-21.2,9.7-21.2,21.6s9.5,21.6,21.2,21.6
						c6.2,0,11.8-2.7,15.7-7L79.1,63z"/>
					<path id="Fill-48_2_" class="st17" d="M21.3,42c5.6,0,10.3,3.7,12,8.8h-24C11,45.7,15.7,42,21.3,42L21.3,42z M31,63
						c-2.3,2.9-5.8,4.7-9.7,4.7c-5.3,0-9.8-3.3-11.7-8.1h7.9H33h9c0.3-1.5,0.5-3.1,0.5-4.8c0-11.9-9.5-21.6-21.2-21.6
						c-11.7,0-21.2,9.7-21.2,21.6c0,11.9,9.5,21.6,21.2,21.6c7,0,13.2-3.5,17.1-8.8L31,63z"/>
				</g>
				<g id="Clip-51_2_" transform="translate(126.000000, 50.000000)">
					<g>
						<path id="path-8_2_" class="st18" d="M0.6,33.6c2.2,9.9,10.5,17.1,20.6,17.1c7.1,0,13.2-3.6,17.1-9.1L31,37
							c-2.3,3-5.8,4.7-9.7,4.7c-5.3,0-9.8-3.3-11.7-8.1H0.6z"/>
					</g>
				</g>
			</g>
		</g>
	</g>
</g>
</svg>
