<?xml version="1.0" encoding="utf-8"?>
<!-- Generator: Adobe Illustrator 23.0.3, SVG Export Plug-In . SVG Version: 6.00 Build 0)  -->
<svg version="1.1" id="Layer_1" xmlns="http://www.w3.org/2000/svg" xmlns:xlink="http://www.w3.org/1999/xlink" x="0px" y="0px"
	 viewBox="0 0 25 25" style="enable-background:new 0 0 93 38;" xml:space="preserve">
<style type="text/css">
	.st0{fill:#37E2E2;}
	.st1{fill:#1678FF;}
</style>
<g>
	<path class="st0" d="M19.3,13.1l-3.1,13.3c-0.1,0.2,0.1,0.4,0.3,0.4h6.2c0.2,0,0.4-0.2,0.3-0.4l-3.1-13.3
		C19.9,12.8,19.3,12.8,19.3,13.1z M2.3,18.2l-1.9,8.3c-0.1,0.2,0.1,0.4,0.3,0.4h3.8c0.2,0,0.4-0.2,0.3-0.4l-1.9-8.3
		C2.8,17.9,2.3,17.9,2.3,18.2z"/>
	<path class="st1" d="M6.4,8.1L2.2,26.5c-0.1,0.2,0.1,0.4,0.3,0.4H11c0.2,0,0.4-0.2,0.3-0.4L7.1,8.1C7,7.8,6.5,7.8,6.4,8.1z"/>
	<path class="st1" d="M13.6,0.5l-6,26c-0.1,0.2,0.1,0.4,0.3,0.4h12c0.2,0,0.4-0.2,0.3-0.4l-6-26C14.1,0.2,13.6,0.2,13.6,0.5z"/>
	<path class="st0" d="M9.6,10.6L5.9,26.5c-0.1,0.2,0.1,0.4,0.3,0.4h7.3c0.2,0,0.4-0.2,0.3-0.4l-3.7-15.9
		C10.2,10.3,9.7,10.3,9.6,10.6L9.6,10.6z"/>
	<path class="st0" d="M0,0"/>
</g>
</svg>
